<svg xmlns="http://www.w3.org/2000/svg" width="1024" height="1024" viewBox="0 0 1024 1024">
<g>
<path d="M 558.00 877.56 C546.12,879.16 495.05,880.43 484.50,879.38 C426.42,873.64 378.27,858.97 332.50,833.09 C226.72,773.27 158.27,668.71 145.86,548.00 C144.20,531.92 144.20,492.08 145.86,476.00 C151.13,424.73 166.89,374.78 191.46,331.50 C251.05,226.53 355.71,158.24 476.00,145.86 C492.08,144.20 532.90,144.20 549.00,145.85 C620.51,153.20 685.67,179.69 741.81,224.23 C758.05,237.12 786.86,265.92 799.60,282.00 C842.77,336.50 868.37,397.14 877.70,467.00 C879.11,477.58 879.50,487.30 879.50,512.00 C879.50,536.70 879.11,546.42 877.70,557.00 C868.32,627.18 842.72,687.64 799.16,742.50 C786.64,758.27 757.73,787.13 741.81,799.77 C688.14,842.36 626.88,868.28 558.00,877.56 ZM 492.46 874.83 C539.92,877.08 581.70,871.58 625.50,857.29 C734.50,821.74 821.77,734.48 857.29,625.50 C870.00,586.51 875.12,553.92 875.12,512.00 C875.12,483.53 873.21,463.77 868.06,438.78 C835.60,281.31 703.00,163.41 543.22,149.94 C525.45,148.44 482.12,149.27 466.04,151.42 C398.71,160.43 337.63,186.42 284.50,228.67 C270.34,239.93 239.86,270.38 228.71,284.41 C186.27,337.80 160.59,398.40 151.32,467.00 C148.72,486.31 148.72,537.69 151.32,557.00 C160.55,625.35 186.55,686.73 228.65,739.50 C239.96,753.69 270.40,784.12 284.45,795.29 C344.85,843.30 418.07,871.31 492.46,874.83 ZM 541.35 754.96 C530.66,756.41 505.02,756.91 492.79,755.91 C446.54,752.12 401.11,734.67 363.72,706.32 C350.60,696.38 327.62,673.39 317.67,660.27 C282.00,613.23 264.87,557.00 268.10,497.55 C270.94,445.08 291.05,394.83 325.55,354.00 C368.46,303.20 431.61,271.70 497.80,268.07 C570.39,264.10 637.01,290.11 687.51,342.13 C724.50,380.22 746.35,425.12 754.62,480.00 C756.69,493.77 756.97,527.96 755.11,541.00 C748.61,586.51 733.03,624.93 707.07,659.46 C697.44,672.27 678.35,691.94 665.50,702.31 C629.83,731.08 588.61,748.56 541.35,754.96 ZM 484.26 750.49 C498.89,752.34 533.40,751.82 547.94,749.51 C553.68,748.60 564.26,746.37 571.44,744.55 C655.89,723.19 723.20,655.86 744.57,571.36 C750.25,548.94 751.48,538.33 751.48,512.00 C751.48,485.67 750.25,475.06 744.57,452.64 C730.07,395.32 693.66,344.24 643.91,311.44 C614.06,291.76 580.43,279.28 544.00,274.38 C527.17,272.12 497.71,272.14 480.66,274.43 C436.63,280.34 395.27,298.20 360.50,326.31 C350.11,334.72 330.05,355.32 322.31,365.54 C289.02,409.53 272.71,457.69 272.71,512.00 C272.71,566.31 289.02,614.47 322.31,658.46 C330.05,668.68 350.11,689.28 360.50,697.69 C396.03,726.41 439.00,744.75 484.26,750.49 ZM 542.00 665.03 C529.81,667.52 504.85,668.47 493.10,666.89 C489.04,666.34 480.58,664.57 474.32,662.95 C412.40,646.99 366.29,595.23 357.91,532.29 C356.21,519.46 357.30,490.98 359.94,479.50 C366.79,449.72 379.58,425.80 399.87,404.77 C421.97,381.86 447.07,367.62 478.45,360.18 C488.64,357.76 491.26,357.56 512.00,357.53 C536.59,357.50 542.33,358.28 561.00,364.23 C583.81,371.49 604.04,383.93 621.52,401.46 C642.64,422.63 656.11,445.98 663.00,473.36 C676.61,527.48 661.40,582.68 622.05,622.06 C599.52,644.60 573.43,658.60 542.00,665.03 ZM 489.00 610.89 C493.12,611.36 498.64,611.80 501.25,611.87 L 506.00 612.00 L 506.00 547.00 L 514.00 547.00 L 514.00 612.24 L 522.75 611.57 C534.63,610.65 551.75,607.59 561.81,604.56 C572.11,601.47 586.91,595.28 589.24,593.10 C591.88,590.62 598.79,572.91 602.06,560.22 C604.97,548.98 608.00,529.44 608.00,521.95 L 608.00 518.00 L 540.00 518.00 L 540.00 515.58 C540.00,514.25 539.73,512.45 539.39,511.58 C538.85,510.16 542.25,510.00 573.39,510.00 L 608.00 510.00 L 608.00 505.55 C608.00,492.45 602.95,466.90 597.52,452.45 C591.30,435.93 590.32,434.42 584.06,431.61 C564.09,422.65 536.64,416.09 518.75,416.02 L 514.00 416.00 L 514.00 450.61 C514.00,481.75 513.84,485.15 512.42,484.61 C511.55,484.27 509.75,484.00 508.42,484.00 L 506.00 484.00 L 506.00 416.00 L 502.96 416.00 C485.31,416.00 455.28,422.97 436.78,431.36 C431.62,433.70 430.75,434.56 427.95,440.09 C420.42,455.01 414.21,479.53 412.47,501.25 L 411.76 510.00 L 477.00 510.00 L 477.00 518.00 L 411.76 518.00 L 412.47 526.75 C414.20,548.35 420.42,572.99 427.85,587.71 C430.73,593.41 431.19,593.81 438.87,597.32 C453.38,603.95 471.84,608.95 489.00,610.89 ZM 508.23 840.28 C485.83,850.18 463.51,836.02 463.67,812.00 C463.75,800.03 470.60,789.75 481.78,784.82 C487.67,782.22 500.31,781.27 506.35,782.96 C513.36,784.92 519.99,790.64 523.83,798.03 C527.03,804.19 527.18,804.91 526.78,813.00 C526.51,818.53 525.74,822.69 524.58,824.91 C521.44,830.88 514.30,837.60 508.23,840.28 ZM 663.69 273.94 C660.29,275.60 655.70,277.17 653.50,277.44 C647.81,278.12 639.47,275.99 632.50,272.07 C629.20,270.21 622.90,266.74 618.50,264.36 C613.27,261.53 611.55,260.23 613.52,260.60 C615.71,261.00 616.98,260.66 618.11,259.33 C620.22,256.86 642.00,215.41 642.00,213.86 C642.00,213.18 641.01,211.57 639.79,210.28 C636.57,206.85 664.66,221.16 669.82,225.58 C672.20,227.62 675.24,231.78 677.09,235.53 C679.99,241.42 680.22,242.60 679.79,249.24 C679.04,260.86 673.68,269.08 663.69,273.94 ZM 245.96 658.11 C239.93,660.40 232.24,660.45 225.50,658.24 C217.56,655.63 209.15,646.61 205.23,636.50 C203.53,632.10 200.96,625.86 199.53,622.63 C197.04,617.04 196.61,613.53 198.94,617.89 C201.59,622.84 202.64,622.63 226.24,612.42 C238.48,607.12 249.39,601.93 250.47,600.90 C252.16,599.27 252.28,598.58 251.31,596.00 C250.68,594.35 250.49,593.00 250.87,593.00 C251.84,593.00 261.88,615.37 263.67,621.50 C266.90,632.56 262.98,646.68 254.92,653.07 C252.73,654.80 248.70,657.07 245.96,658.11 ZM 485.86 838.21 C507.50,849.45 526.47,826.75 517.33,800.57 C511.57,784.05 489.34,778.32 478.14,790.46 C473.16,795.87 471.54,800.69 471.57,810.00 C471.62,823.78 476.46,833.33 485.86,838.21 ZM 222.14 652.69 C226.81,654.47 237.47,653.68 243.29,651.13 C250.15,648.13 258.51,639.90 260.43,634.24 C262.81,627.26 262.44,621.22 259.25,614.99 C257.74,612.03 255.79,609.19 254.93,608.68 C253.78,607.99 247.58,610.23 231.93,616.97 C206.42,627.95 206.00,628.19 206.00,631.83 C206.00,638.90 214.39,649.75 222.14,652.69 ZM 775.46 418.04 C773.81,421.28 772.44,425.91 772.09,429.43 L 771.50 435.37 L 768.24 427.43 C766.45,423.07 764.99,418.92 764.99,418.20 C765.01,416.06 767.81,411.10 775.72,399.23 C782.90,388.45 783.17,387.83 781.99,384.98 C781.31,383.34 780.31,382.00 779.77,382.00 C777.77,382.00 757.46,391.22 756.36,392.64 C755.73,393.44 755.46,395.08 755.75,396.30 C756.73,400.28 755.26,397.65 750.66,387.17 C746.84,378.46 746.51,377.26 748.57,379.49 C749.26,380.23 749.70,380.82 750.29,381.16 C752.13,382.22 755.40,380.79 772.00,373.53 C773.26,372.99 774.59,372.41 776.00,371.79 C796.31,362.93 800.37,361.17 800.80,358.75 C800.91,358.15 800.80,357.50 800.65,356.70 L 800.64 356.66 C800.32,354.88 802.06,357.65 804.62,363.00 C811.57,377.53 813.00,381.64 813.00,387.11 C813.00,391.32 812.53,392.62 810.15,395.00 C805.52,399.64 800.73,399.78 790.85,395.57 C789.57,395.02 788.00,396.81 783.73,403.72 C780.71,408.59 776.99,415.04 775.46,418.04 ZM 637.50 272.50 C639.70,273.28 642.85,273.92 644.50,273.93 C652.37,273.99 661.87,265.76 667.30,254.18 C669.93,248.57 670.44,246.29 670.46,240.00 C670.48,231.29 668.89,227.54 663.40,223.36 C660.77,221.35 658.61,220.60 655.35,220.56 L 650.89 220.50 L 640.80 239.50 C640.16,240.69 639.56,241.83 638.98,242.92 C629.88,260.04 627.99,263.58 629.00,265.83 C629.33,266.55 629.96,267.15 630.75,268.02 C632.26,269.71 635.30,271.72 637.50,272.50 ZM 643.40 472.75 C645.77,477.40 646.12,476.77 644.39,470.96 C642.03,463.01 636.46,450.40 631.88,442.63 C616.67,416.87 592.78,395.74 566.17,384.51 C557.21,380.74 546.32,377.35 549.39,379.30 C561.01,386.68 564.82,389.68 573.04,397.93 C578.74,403.65 585.07,411.32 588.76,417.00 C596.29,428.58 595.41,427.70 607.00,435.26 C621.77,444.90 637.45,461.05 643.40,472.75 ZM 495.50 648.50 C496.34,648.69 497.11,648.87 497.82,649.03 C501.46,649.88 503.50,650.35 504.63,649.55 C506.05,648.54 506.04,645.50 506.01,638.62 C506.00,637.56 506.00,636.41 506.00,635.15 L 506.00 620.30 L 495.39 619.65 C482.20,618.85 463.18,615.06 449.75,610.56 C444.13,608.68 439.40,607.27 439.23,607.44 C439.07,607.60 440.81,610.16 443.10,613.12 C457.86,632.16 475.41,644.01 495.50,648.50 ZM 572.00 417.82 C576.67,419.42 580.67,420.59 580.87,420.42 C581.07,420.24 579.64,417.92 577.69,415.25 C571.94,407.43 556.99,393.68 549.19,389.04 C540.68,383.99 527.85,379.35 519.72,378.40 L 513.94 377.72 L 514.50 407.34 L 519.50 407.67 C538.49,408.92 555.81,412.27 572.00,417.82 ZM 603.31 583.88 C602.04,587.01 609.82,581.07 619.54,571.50 C634.70,556.56 643.68,540.11 645.60,523.75 L 646.28 518.00 L 617.09 518.00 L 616.63 521.25 C616.38,523.04 615.71,529.24 615.14,535.03 C613.58,550.98 609.03,569.74 603.31,583.88 ZM 374.52 504.78 L 373.80 510.05 L 388.65 509.78 L 403.50 509.50 L 403.73 505.50 C404.79,487.06 409.19,464.51 414.46,450.52 C415.87,446.77 416.85,443.52 416.64,443.31 C415.99,442.65 406.83,449.91 400.16,456.36 C386.22,469.87 376.86,487.53 374.52,504.78 ZM 411.41 581.36 C414.11,583.38 416.48,584.85 416.69,584.64 C416.90,584.43 416.16,581.95 415.05,579.14 C409.59,565.28 405.25,544.90 404.32,528.75 L 403.69 518.00 L 373.81 518.00 L 374.53 523.25 C377.41,544.46 391.34,566.42 411.41,581.36 ZM 514.50 620.50 L 513.95 650.20 L 519.22 649.48 C535.75,647.23 551.67,639.15 565.36,626.06 C572.02,619.70 581.58,608.25 580.85,607.52 C580.65,607.32 575.32,608.89 569.00,611.00 C555.28,615.59 539.37,618.75 525.00,619.76 ZM 616.75 509.25 C616.95,509.66 623.68,510.00 631.70,510.00 L 646.28 510.00 L 645.60 504.25 C643.86,489.45 634.97,472.18 622.21,458.83 C615.54,451.84 605.20,443.00 603.71,443.00 C603.38,443.00 604.40,446.72 605.97,451.26 C611.68,467.74 615.54,487.01 616.13,502.00 C616.28,505.58 616.55,508.84 616.75,509.25 ZM 440.62 418.03 C439.28,420.33 439.13,421.09 440.12,420.69 C454.47,414.88 477.11,409.45 491.00,408.49 C495.67,408.16 500.96,407.67 502.75,407.40 L 506.00 406.91 L 506.00 392.45 C506.00,391.24 506.01,390.13 506.01,389.10 C506.04,382.49 506.05,379.49 504.63,378.44 C503.44,377.56 501.24,378.04 497.22,378.93 C496.47,379.09 495.65,379.27 494.77,379.46 C486.42,381.23 472.85,387.51 464.54,393.44 C457.80,398.24 443.71,412.74 440.62,418.03 ZM 628.32 823.00 L 626.85 823.67 C620.56,826.54 619.29,827.12 619.05,826.83 C618.99,826.76 618.99,826.63 619.00,826.47 C619.00,826.42 619.00,826.38 619.00,826.32 C619.00,825.86 619.90,824.92 621.00,824.23 C624.58,821.99 623.44,817.39 613.99,796.04 C609.04,784.85 604.45,775.04 603.79,774.24 C602.96,773.25 601.39,772.95 598.79,773.30 C596.71,773.58 595.00,773.49 595.00,773.09 C595.00,772.25 604.91,768.00 606.88,768.00 C607.62,768.00 610.31,769.72 612.86,771.82 C615.41,773.92 624.03,781.04 632.00,787.64 C639.97,794.24 647.07,799.98 647.77,800.39 C648.79,801.00 648.91,795.96 648.36,774.67 L 647.69 748.19 L 653.84 745.08 C660.30,741.82 661.72,741.86 657.50,745.18 C655.92,746.42 655.01,748.13 655.03,749.82 C655.04,751.30 660.15,762.17 666.38,774.00 L 677.70 795.50 L 681.97 795.30 C684.31,795.19 686.03,795.31 685.77,795.56 C685.20,796.13 667.03,805.00 666.43,805.00 C665.02,805.00 666.38,803.15 668.50,802.18 C670.04,801.48 671.00,800.22 671.00,798.90 C671.00,796.97 651.44,758.00 650.47,758.00 C650.25,758.00 650.27,760.59 650.51,763.75 C651.45,776.42 652.03,812.00 651.28,812.00 C650.84,812.00 641.59,804.59 630.72,795.54 C619.84,786.49 610.52,778.82 609.99,778.49 C609.04,777.90 611.61,784.20 620.43,804.00 C627.10,818.99 627.38,819.35 632.10,818.71 C634.25,818.43 636.00,818.48 636.00,818.85 C636.00,819.21 632.54,821.08 628.32,823.00 ZM 533.18 572.02 C529.71,577.49 526.52,582.18 526.10,582.44 C525.68,582.70 523.88,574.27 522.09,563.70 C520.31,553.14 517.96,539.62 516.87,533.66 C515.78,527.70 515.03,522.41 515.20,521.90 C515.37,521.39 520.74,525.37 527.13,530.74 C533.52,536.11 544.36,545.22 551.22,551.00 L 563.69 561.50 L 539.50 562.06 ZM 571.89 631.17 C562.64,640.34 561.65,641.63 564.81,640.31 C596.80,626.97 622.79,602.07 637.50,570.66 C642.04,560.97 644.20,554.77 641.77,558.40 C632.94,571.59 620.18,584.10 606.50,593.00 C595.58,600.09 596.34,599.33 588.79,611.00 C584.74,617.25 578.97,624.15 571.89,631.17 ZM 384.54 457.31 L 381.97 463.13 L 392.73 452.29 C399.82,445.16 406.75,439.34 413.00,435.30 C424.59,427.80 423.78,428.60 431.32,417.00 C438.24,406.35 453.53,390.28 461.75,385.02 C464.64,383.18 466.84,381.50 466.64,381.31 C466.44,381.11 462.61,382.50 458.13,384.39 C425.85,398.00 398.95,424.65 384.54,457.31 ZM 383.11 275.55 C377.94,278.00 373.47,280.00 373.17,280.00 C372.87,280.00 373.81,278.76 375.26,277.25 C376.71,275.74 378.77,272.48 379.84,270.00 C381.72,265.65 386.57,245.17 385.85,244.58 C384.28,243.30 366.47,231.73 362.56,229.46 C359.84,227.88 355.88,226.34 353.76,226.04 L 349.90 225.50 L 358.70 221.70 L 360.06 221.11 C367.68,217.81 369.84,216.88 369.98,217.12 C370.03,217.22 369.77,217.49 369.41,217.88 C369.36,217.93 369.31,217.99 369.25,218.05 C368.56,218.79 368.00,219.77 368.00,220.22 C368.00,220.68 372.55,224.02 378.10,227.66 C385.18,232.30 388.43,233.92 388.95,233.08 C389.36,232.41 390.29,228.08 391.01,223.44 C392.59,213.29 391.68,210.01 387.27,209.99 C385.21,209.98 386.55,209.07 392.50,206.42 L 393.23 206.10 C400.09,203.05 402.46,201.99 402.67,202.32 C402.78,202.49 402.28,203.06 401.52,203.92 L 401.37 204.09 C397.80,208.12 395.96,212.69 393.44,223.84 C392.11,229.70 391.01,234.82 391.01,235.20 C391.00,235.94 400.01,241.97 413.50,250.25 C420.36,254.46 422.05,255.09 425.33,254.66 C427.44,254.39 428.94,254.39 428.66,254.67 C428.07,255.26 408.79,264.00 408.08,264.00 C407.82,264.00 408.14,263.46 408.80,262.80 C409.46,262.14 410.00,261.22 410.00,260.76 C410.00,260.30 405.17,256.80 399.26,252.98 C398.49,252.49 397.78,252.02 397.11,251.58 C392.28,248.44 389.95,246.92 388.61,247.54 C387.16,248.21 386.89,251.40 385.92,257.75 C384.31,268.22 385.01,270.98 389.27,271.05 C392.03,271.09 391.13,271.75 383.11,275.55 ZM 287.04 365.44 C280.95,374.55 275.79,382.00 275.57,382.00 C275.35,382.00 275.70,380.61 276.34,378.92 C277.42,376.06 277.29,375.69 274.55,373.67 C268.33,369.10 232.69,346.00 231.86,346.00 C231.37,346.00 230.21,346.90 229.27,348.00 C228.33,349.10 227.24,350.00 226.86,350.00 C225.97,350.00 248.28,316.04 249.18,316.02 C249.56,316.01 252.23,317.46 255.11,319.25 L 260.35 322.50 L 254.93 323.03 C248.15,323.69 246.07,324.85 242.60,329.86 C238.38,335.94 239.15,337.60 249.37,344.42 L 258.23 350.34 L 260.15 347.92 C263.13,344.16 266.00,338.30 266.00,335.97 C266.00,334.82 265.51,332.94 264.90,331.81 C264.83,331.69 264.77,331.57 264.71,331.46 C264.38,330.85 264.15,330.44 264.26,330.32 C264.47,330.09 266.09,331.13 271.06,334.33 C271.50,334.61 271.95,334.91 272.44,335.22 L 273.15 335.68 C276.99,338.15 278.59,339.18 278.46,339.50 C278.36,339.73 277.39,339.60 275.72,339.37 C275.58,339.35 275.43,339.33 275.28,339.31 C270.64,338.69 266.84,341.38 263.21,347.84 L 260.91 351.93 L 270.86 358.56 C276.35,362.21 281.62,365.03 282.61,364.84 C283.60,364.65 285.74,362.60 287.37,360.28 C291.39,354.57 292.14,346.60 289.15,341.54 C288.01,339.59 287.35,338.00 287.69,338.00 C289.51,338.00 299.08,346.34 298.63,347.53 C298.34,348.27 293.13,356.33 287.04,365.44 ZM 745.65 362.45 C742.70,364.40 739.83,366.00 739.27,366.00 C738.71,366.00 732.90,358.93 726.37,350.28 C712.10,331.39 711.97,331.18 715.84,334.04 L 718.91 336.31 L 740.46 320.15 C761.73,304.19 763.73,302.13 760.82,299.22 C760.17,298.57 759.84,297.83 760.10,297.57 C760.49,297.17 782.16,324.94 784.25,328.54 C784.75,329.40 783.37,331.03 780.12,333.41 C777.43,335.39 774.94,337.00 774.59,337.00 C774.24,337.00 774.64,335.67 775.47,334.05 C776.31,332.43 777.00,329.70 777.00,328.00 C777.00,322.44 771.45,314.00 767.80,314.00 C766.00,314.00 749.13,325.84 749.04,327.16 C749.02,327.52 751.44,330.40 754.42,333.55 C759.49,338.91 760.08,339.25 763.42,338.71 C765.39,338.39 767.00,338.26 767.00,338.43 C767.00,339.14 752.84,349.17 752.42,348.75 C752.16,348.50 752.64,347.72 753.48,347.02 C755.46,345.37 755.41,341.70 753.35,337.70 C751.11,333.37 747.81,329.00 746.79,329.00 C744.86,329.00 727.00,343.37 727.00,344.92 C727.00,347.81 733.04,354.98 737.29,357.15 C740.31,358.69 742.59,359.10 746.18,358.76 C748.83,358.50 751.00,358.43 751.00,358.59 C751.00,358.76 748.59,360.49 745.65,362.45 ZM 565.68 241.43 C565.00,244.68 564.01,247.44 563.47,247.54 C562.94,247.64 553.28,246.56 542.00,245.12 C530.72,243.69 522.70,242.38 524.18,242.20 C525.65,242.03 527.34,241.30 527.93,240.59 C528.52,239.88 530.12,229.67 531.49,217.90 C532.86,206.13 534.21,194.70 534.49,192.50 C535.07,187.88 534.41,186.48 530.97,185.11 C527.23,183.62 529.99,183.79 550.50,186.34 L 568.50 188.58 L 568.83 191.97 C569.01,193.84 568.87,196.90 568.52,198.77 L 567.88 202.17 L 565.69 197.90 C564.48,195.54 562.35,192.78 560.94,191.76 C557.50,189.25 547.87,188.24 546.23,190.22 C544.98,191.73 542.31,211.65 543.24,212.57 C543.53,212.86 546.93,213.36 550.79,213.69 C557.49,214.25 557.95,214.15 560.56,211.53 L 563.31 208.78 L 562.65 215.04 C562.29,218.48 562.00,222.46 562.00,223.90 C562.00,226.36 561.90,226.31 560.25,223.00 C558.08,218.66 553.01,216.00 546.88,216.00 L 542.26 216.00 L 541.13 224.82 C539.69,236.09 539.70,240.30 541.20,241.80 C541.91,242.51 545.30,243.00 549.45,243.00 C557.58,242.99 561.79,241.03 565.01,235.76 C567.28,232.02 567.41,233.10 565.68,241.43 ZM 492.50 244.16 C483.15,245.07 472.69,246.09 469.25,246.43 C465.81,246.78 463.00,246.66 463.00,246.17 C463.00,245.69 469.30,232.09 477.00,215.96 C484.70,199.84 491.00,186.50 491.00,186.34 C491.00,185.82 481.77,187.15 475.05,188.64 C467.73,190.26 462.87,193.48 461.03,197.94 C458.92,203.02 458.37,201.43 459.34,193.07 C460.17,185.95 460.44,185.26 461.98,186.22 C463.22,186.99 468.42,186.83 480.69,185.65 L 481.90 185.53 C497.70,184.00 501.25,183.65 501.70,184.67 C501.83,184.97 501.70,185.38 501.53,185.91 C501.51,185.96 501.50,186.00 501.48,186.05 C501.13,187.18 495.02,200.53 487.92,215.72 C480.81,230.91 475.19,243.52 475.42,243.75 C476.34,244.67 497.24,241.93 499.93,240.54 C503.33,238.78 506.80,234.63 507.63,231.34 C508.82,226.60 510.08,229.18 509.80,235.75 L 509.50 242.50 ZM 762.25 729.58 C757.09,736.55 755.56,737.64 757.27,733.10 C758.14,730.80 758.04,729.72 756.82,727.85 C755.61,726.00 723.13,700.53 718.40,697.72 C717.79,697.36 715.65,697.90 713.65,698.92 C711.64,699.95 710.00,700.60 710.00,700.37 C710.00,700.14 711.64,697.75 713.64,695.07 L 717.28 690.20 L 732.39 689.58 C740.70,689.24 755.05,688.64 764.27,688.23 L 781.04 687.50 L 763.50 674.25 C753.86,666.96 745.16,661.00 744.17,661.00 C743.19,661.00 741.51,661.66 740.44,662.47 C736.62,665.36 737.12,663.90 742.27,657.06 C747.24,650.45 750.26,647.77 748.04,651.93 C745.19,657.24 746.03,658.12 773.27,678.50 C783.56,686.20 791.98,692.84 791.99,693.25 C792.00,693.66 790.31,694.00 788.25,694.01 C780.77,694.03 723.70,696.97 723.31,697.35 C722.69,697.98 756.19,723.21 759.15,724.35 C761.21,725.14 762.37,724.99 764.40,723.66 C765.83,722.72 767.00,722.23 767.00,722.56 C767.00,722.89 764.86,726.05 762.25,729.58 ZM 259.92 419.14 C257.67,424.84 255.53,429.82 255.17,430.20 C254.80,430.59 254.50,429.24 254.50,427.20 L 254.50 423.50 L 230.50 413.79 C217.30,408.45 206.14,404.06 205.70,404.04 C205.26,404.02 203.83,405.16 202.51,406.59 C200.64,408.60 201.79,404.98 207.65,390.34 C211.80,379.98 215.35,371.34 215.53,371.14 C216.20,370.45 227.84,375.44 227.37,376.22 C227.10,376.65 225.35,377.00 223.48,377.00 C218.84,377.00 213.64,381.69 211.59,387.70 C210.18,391.84 210.17,392.53 211.51,394.01 C213.37,396.06 231.59,403.37 232.87,402.58 C234.09,401.82 237.00,393.28 237.00,390.46 C237.00,389.25 236.07,387.08 234.93,385.63 C233.79,384.19 233.00,383.01 233.18,383.02 C233.35,383.03 237.32,384.59 242.00,386.50 C248.58,389.18 249.82,389.98 247.50,390.01 C243.32,390.06 240.52,392.59 237.59,398.96 C236.21,401.96 235.18,404.48 235.29,404.56 C237.01,405.71 256.56,413.00 257.95,413.00 C259.00,413.00 260.79,411.81 261.93,410.37 C263.07,408.92 264.00,407.97 264.00,408.26 C264.00,408.55 262.16,413.45 259.92,419.14 ZM 323.43 321.07 C314.68,329.83 307.11,337.00 306.61,337.00 C306.10,337.00 306.43,336.18 307.35,335.17 C308.26,334.17 309.00,332.53 309.00,331.54 C309.00,329.49 274.67,294.35 271.77,293.43 C270.74,293.10 268.69,293.60 267.20,294.54 C265.72,295.47 268.30,292.37 272.95,287.65 C277.59,282.93 281.60,279.26 281.84,279.51 C282.08,279.75 281.73,280.62 281.06,281.43 C280.39,282.24 279.98,283.59 280.17,284.42 C280.65,286.62 313.83,320.81 316.21,321.57 C317.68,322.03 319.28,321.17 322.22,318.35 C329.02,311.83 331.62,303.39 328.97,296.43 C328.41,294.94 328.12,293.54 328.34,293.33 C328.56,293.11 331.12,295.68 334.03,299.04 L 339.33 305.15 ZM 718.00 312.24 C718.00,312.40 715.35,315.32 712.11,318.72 L 706.21 324.92 L 689.17 310.21 C673.41,296.62 668.33,291.55 674.51,295.60 C676.66,297.00 677.29,297.04 678.99,295.87 C682.37,293.53 713.00,257.61 713.00,255.98 C713.00,255.14 712.23,253.33 711.29,251.97 C710.35,250.61 712.43,251.98 715.92,255.00 C727.41,264.96 728.66,266.18 726.32,265.05 C725.11,264.47 723.49,264.00 722.70,264.00 C720.66,264.00 688.00,301.53 688.00,303.87 C688.00,305.99 693.30,311.07 698.12,313.56 C702.32,315.73 710.70,315.78 714.75,313.65 C716.54,312.72 718.00,312.08 718.00,312.24 ZM 720.81 768.86 C712.73,775.54 705.87,781.00 705.56,781.00 C704.49,781.00 705.01,780.08 707.49,777.60 C709.32,775.77 709.78,774.57 709.22,773.06 C708.80,771.94 701.39,762.46 692.74,752.01 C676.35,732.18 674.86,731.01 670.82,734.66 C669.81,735.57 668.69,736.02 668.33,735.66 C667.96,735.30 667.85,734.85 668.08,734.66 C668.31,734.47 675.20,728.77 683.38,722.00 L 698.27 709.68 L 702.54 714.59 C704.89,717.29 706.68,719.63 706.53,719.79 C706.38,719.95 704.59,719.10 702.56,717.90 C699.34,716.00 698.40,715.87 695.18,716.85 C690.70,718.23 683.00,725.19 683.00,727.86 C683.00,729.65 695.33,746.00 696.68,746.00 C697.01,746.00 699.51,744.31 702.23,742.25 C708.30,737.65 710.54,733.87 708.95,730.91 C706.78,726.85 708.76,728.06 713.84,733.91 C718.84,739.66 721.08,744.19 717.17,740.65 C714.22,737.98 710.59,738.68 705.18,742.95 C702.43,745.13 699.87,747.40 699.50,747.99 C699.14,748.59 701.46,752.26 704.67,756.15 C707.88,760.03 711.43,764.36 712.58,765.76 C715.44,769.26 718.42,768.33 725.40,761.72 C730.28,757.11 731.00,755.94 731.00,752.65 C731.00,750.57 730.52,747.97 729.94,746.88 C729.35,745.78 729.04,744.39 729.24,743.78 C729.44,743.17 731.49,745.32 733.79,748.57 C737.05,753.16 737.70,754.71 736.74,755.59 C736.06,756.21 728.89,762.19 720.81,768.86 ZM 447.29 634.56 C451.80,636.98 455.60,638.97 455.71,638.98 C455.83,638.99 451.91,634.95 446.99,629.99 C441.80,624.75 435.15,616.58 431.09,610.43 C424.38,600.26 423.73,599.62 413.43,592.82 C407.29,588.76 398.99,582.05 393.94,577.05 L 385.15 568.35 L 388.20 574.42 C401.00,599.88 421.42,620.67 447.29,634.56 ZM 567.25 838.32 C561.89,839.21 555.92,840.20 554.00,840.52 L 550.50 841.09 L 553.99 839.29 C555.90,838.30 557.64,836.64 557.84,835.60 C558.24,833.51 550.36,789.85 548.94,786.25 C548.21,784.42 547.27,784.00 543.85,784.00 C541.55,784.00 539.98,783.69 540.35,783.31 C541.34,782.33 566.85,777.10 570.93,777.05 C576.63,776.97 582.58,780.51 584.94,785.38 C588.84,793.43 587.14,801.16 580.14,807.15 C574.76,811.76 564.00,814.99 564.00,812.00 C564.00,811.45 565.54,811.00 567.42,811.00 C573.31,811.00 580.01,803.70 579.99,797.30 C579.98,792.13 577.82,786.62 574.50,783.30 C571.64,780.44 570.53,780.00 566.17,780.00 C558.85,780.00 555.99,781.33 556.03,784.73 C556.09,790.03 564.76,833.01 566.09,834.61 C567.12,835.86 568.53,836.10 572.22,835.66 C580.97,834.62 577.15,836.67 567.25,838.32 ZM 264.04 720.05 C260.68,722.22 257.79,724.00 257.61,724.00 C257.08,724.00 233.00,691.04 233.00,690.31 C233.00,689.93 234.37,690.94 236.05,692.55 C239.02,695.39 239.19,695.43 241.93,693.86 C247.60,690.60 282.20,664.63 282.74,663.23 C283.05,662.43 282.50,660.42 281.52,658.76 C280.54,657.10 280.23,655.92 280.82,656.12 C281.91,656.50 304.00,685.95 304.00,687.01 C304.00,687.32 301.75,689.25 299.00,691.31 C296.25,693.36 294.00,694.82 294.00,694.54 C294.00,694.27 294.90,692.57 296.00,690.77 C298.85,686.10 298.50,683.37 294.28,677.24 C289.79,670.73 287.84,669.48 284.75,671.13 C280.68,673.30 267.93,683.28 268.22,684.06 C268.37,684.47 270.68,687.61 273.34,691.03 C277.91,696.89 278.37,697.20 281.59,696.68 C283.47,696.37 285.00,696.25 285.00,696.40 C285.00,696.55 282.30,698.78 279.00,701.34 C272.57,706.33 269.17,707.57 272.95,703.56 C275.86,700.45 275.34,698.20 269.96,690.69 L 265.86 684.96 L 262.68 687.18 C254.73,692.73 246.43,699.27 245.71,700.55 C244.67,702.41 246.81,706.38 252.10,712.38 L 256.40 717.26 L 263.27 716.68 L 270.15 716.10 ZM 377.30 806.34 C375.25,809.45 373.11,811.99 372.54,811.97 C371.02,811.94 337.02,793.62 337.01,792.84 C337.00,792.47 338.36,792.69 340.03,793.32 C342.14,794.11 343.55,794.15 344.69,793.42 C346.39,792.35 369.94,749.42 369.98,747.32 C369.99,746.67 368.54,744.99 366.75,743.58 C364.96,742.17 364.01,741.02 364.63,741.01 C366.47,740.99 398.12,758.16 398.62,759.45 C399.01,760.46 394.39,770.00 393.51,770.00 C393.33,770.00 393.43,768.21 393.72,766.02 C394.42,760.80 392.37,757.73 386.02,754.51 C376.98,749.93 375.71,750.73 368.12,765.77 L 364.99 771.97 L 371.97 775.48 C379.66,779.36 382.12,779.76 384.02,777.48 C386.63,774.33 386.01,777.03 382.55,783.90 C380.58,787.80 378.75,791.00 378.48,791.00 C378.20,791.00 378.25,789.26 378.59,787.13 C379.16,783.59 378.93,783.05 375.86,780.75 C372.31,778.08 363.98,773.64 363.55,774.18 C363.41,774.36 360.66,779.51 357.43,785.63 L 357.08 786.30 C353.59,792.91 352.06,795.81 352.81,797.87 C353.42,799.54 355.54,800.67 359.33,802.79 C368.14,807.72 371.63,807.61 377.24,802.26 C381.41,798.28 381.44,800.05 377.30,806.34 ZM 356.84 292.84 C352.08,296.23 347.81,298.98 347.34,298.95 C346.88,298.92 347.51,298.19 348.75,297.33 C349.99,296.46 351.00,294.86 351.00,293.76 C351.00,291.59 322.44,250.11 320.41,249.33 C319.72,249.06 318.18,249.37 316.99,250.00 C315.80,250.64 314.60,250.93 314.32,250.65 C314.04,250.38 315.18,249.44 316.85,248.58 C318.52,247.72 322.86,244.76 326.49,242.01 C333.67,236.57 335.61,235.66 332.15,239.34 C330.65,240.93 330.17,242.30 330.65,243.59 C331.58,246.13 358.43,284.28 360.47,285.97 C361.75,287.03 362.60,287.05 364.78,286.07 C368.38,284.45 367.15,285.50 356.84,292.84 ZM 598.56 256.47 C600.62,258.03 599.51,258.49 597.00,257.12 C596.17,256.67 591.67,255.25 587.00,253.96 C578.65,251.67 573.65,249.38 579.59,250.57 C581.54,250.96 583.00,250.70 583.70,249.84 C585.43,247.70 599.25,200.11 598.62,198.45 C598.30,197.63 597.02,196.50 595.77,195.95 C593.75,195.06 593.83,195.00 596.50,195.47 C601.02,196.27 615.73,200.88 613.94,200.95 C610.22,201.07 608.84,204.12 602.01,227.15 C595.21,250.08 594.12,255.00 595.81,255.00 C596.25,255.00 597.49,255.66 598.56,256.47 ZM 816.98 640.50 C812.91,650.20 809.91,655.36 811.44,650.00 C813.26,643.68 813.22,643.19 810.85,641.64 C806.26,638.65 764.82,621.85 763.38,622.41 C761.22,623.24 758.05,630.92 758.02,635.40 C758.00,638.67 758.65,639.93 762.00,643.11 C764.20,645.21 766.00,647.09 766.00,647.31 C766.00,647.52 762.46,645.87 758.14,643.65 C750.76,639.85 750.39,639.50 752.11,638.05 C755.30,635.35 771.39,596.19 770.38,593.56 C770.06,592.70 770.00,592.00 770.27,592.00 C771.21,592.00 786.00,598.96 786.00,599.40 C786.00,599.65 783.52,599.60 780.49,599.29 C775.96,598.82 774.60,599.06 772.88,600.61 C769.80,603.39 766.84,609.76 767.19,612.83 C767.48,615.29 769.23,616.25 790.00,625.20 C802.38,630.54 813.62,634.81 815.00,634.70 C816.76,634.56 817.92,633.54 818.93,631.25 C820.23,628.29 822.90,626.35 821.69,629.25 C821.40,629.94 819.28,635.00 816.98,640.50 ZM 323.27 750.00 C309.30,757.15 297.45,763.00 296.93,763.00 C294.97,763.00 296.25,757.81 307.59,719.65 C312.03,704.72 312.85,699.64 311.00,698.50 C310.45,698.16 310.00,697.44 310.00,696.90 C310.00,696.37 313.60,698.94 318.00,702.63 C322.41,706.31 325.84,709.49 325.63,709.70 C325.43,709.91 324.06,709.53 322.59,708.86 C320.42,707.87 319.68,707.91 318.57,709.07 C317.07,710.65 303.79,755.13 304.58,755.92 C305.30,756.63 345.26,736.03 346.74,734.18 C347.75,732.93 347.62,732.02 346.03,729.32 C344.95,727.49 344.31,726.00 344.60,726.00 C345.63,726.00 358.96,738.38 358.46,738.87 C358.19,739.14 357.43,738.83 356.78,738.18 C353.78,735.18 348.79,736.94 323.27,750.00 ZM 439.00 834.52 C439.00,835.31 435.68,834.94 433.00,833.87 C431.62,833.32 422.85,830.60 413.50,827.83 C397.32,823.04 389.92,819.95 398.11,821.40 C400.68,821.85 402.07,821.62 402.93,820.58 C404.46,818.75 416.81,778.99 417.66,773.22 C418.26,769.11 418.15,768.88 415.14,767.75 C413.41,767.09 412.00,766.21 412.00,765.78 C412.00,765.74 412.00,765.71 412.00,765.67 C412.00,765.47 412.00,765.31 412.07,765.22 C412.33,764.89 413.51,765.29 418.74,767.06 L 419.57 767.35 C423.38,768.64 428.19,770.01 430.25,770.39 C435.26,771.32 435.07,772.95 430.04,772.28 C426.57,771.81 425.94,772.04 425.03,774.12 C422.94,778.90 411.00,819.37 411.00,821.70 C411.00,824.48 413.52,825.75 424.70,828.59 C431.44,830.30 432.12,830.31 435.36,828.77 C437.26,827.86 439.63,825.74 440.62,824.06 C443.65,818.94 444.05,820.63 441.46,827.52 C440.10,831.11 439.00,834.26 439.00,834.52 ZM 218.79 520.86 C215.65,523.14 212.50,524.98 211.79,524.95 C209.80,524.86 195.00,513.08 195.00,511.57 C195.00,510.33 208.42,499.54 211.37,498.41 C212.57,497.95 227.97,508.52 229.35,510.76 C230.04,511.88 226.53,515.24 218.79,520.86 ZM 820.44 519.51 C816.43,522.53 812.70,525.00 812.16,525.00 C810.36,525.00 795.00,513.03 795.00,511.63 C795.00,510.49 805.75,501.63 810.83,498.58 C812.18,497.77 816.99,500.73 825.79,507.77 C827.79,509.37 829.02,510.31 829.11,511.35 C829.25,512.88 826.91,514.64 820.96,519.12 ZM 787.55 389.41 C788.43,390.28 790.57,391.00 792.32,390.99 C796.51,390.98 805.31,386.82 807.37,383.88 C810.70,379.12 808.41,372.00 803.55,372.00 C800.91,372.00 783.65,379.55 783.20,380.89 C782.79,382.12 785.44,387.30 787.55,389.41 ZM 206.00 517.38 C208.48,519.32 211.06,520.92 211.74,520.95 C213.11,521.01 224.86,512.89 224.95,511.82 C225.06,510.44 212.75,501.88 211.40,502.40 C210.63,502.70 207.50,504.83 204.44,507.13 C201.57,509.30 200.01,510.35 199.96,511.47 C199.91,512.64 201.51,513.89 204.98,516.59 C205.31,516.84 205.65,517.11 206.00,517.38 ZM 804.60 516.28 C807.85,518.82 811.10,520.93 811.83,520.95 C812.56,520.98 815.84,518.93 819.12,516.41 L 819.36 516.22 C822.41,513.87 824.02,512.64 824.02,511.40 C824.02,510.00 821.93,508.60 817.53,505.56 L 811.98 501.74 L 808.24 504.36 C806.18,505.80 803.20,508.02 801.60,509.31 L 798.71 511.65 Z" fill="rgb(16,32,55)" data-index="0" style="opacity: 1;"></path>
<path d="M 489.00 610.89 C471.84,608.95 453.38,603.95 438.87,597.32 C431.19,593.81 430.73,593.41 427.85,587.71 C420.42,572.99 414.20,548.35 412.47,526.75 L 411.76 518.00 L 477.00 518.00 L 477.00 510.00 L 411.76 510.00 L 412.47 501.25 C414.21,479.53 420.42,455.01 427.95,440.09 C430.75,434.56 431.62,433.70 436.78,431.36 C455.28,422.97 485.31,416.00 502.96,416.00 L 506.00 416.00 L 506.00 484.00 L 508.42 484.00 C509.72,484.00 511.48,484.26 512.37,484.59 C508.52,484.05 504.60,484.27 500.86,485.36 C492.92,487.67 486.59,492.14 482.47,498.35 C471.17,515.37 478.86,538.26 498.20,545.17 C502.29,546.63 505.09,546.93 510.48,546.50 C514.32,546.20 517.81,545.59 518.25,545.15 C518.49,544.91 518.59,544.17 518.56,543.20 C519.67,549.51 520.99,557.17 522.09,563.70 C523.88,574.27 525.68,582.70 526.10,582.44 C526.52,582.18 529.71,577.49 533.18,572.02 L 539.50 562.06 L 563.69 561.50 L 551.22 551.00 C544.36,545.22 533.52,536.11 527.13,530.74 C520.74,525.37 515.37,521.39 515.20,521.90 C515.03,522.41 515.78,527.70 516.87,533.66 C517.02,534.48 517.19,535.43 517.38,536.50 L 510.89 536.84 C506.43,537.07 503.12,536.66 500.44,535.54 C478.74,526.48 485.05,494.00 508.50,494.00 C524.37,494.00 534.59,510.32 527.91,525.00 L 525.86 529.50 L 529.11 532.22 C533.01,535.49 533.89,534.99 537.04,527.72 C540.13,520.59 539.95,509.74 536.61,502.45 C532.20,492.83 522.77,486.18 512.76,484.65 C513.87,484.36 514.00,479.08 514.00,450.61 L 514.00 416.00 L 518.75 416.02 C536.64,416.09 564.09,422.65 584.06,431.61 C590.32,434.42 591.30,435.93 597.52,452.45 C602.95,466.90 608.00,492.45 608.00,505.55 L 608.00 510.00 L 573.39 510.00 C542.25,510.00 538.85,510.16 539.39,511.58 C539.73,512.45 540.00,514.25 540.00,515.58 L 540.00 518.00 L 608.00 518.00 L 608.00 521.95 C608.00,529.44 604.97,548.98 602.06,560.22 C598.79,572.91 591.88,590.62 589.24,593.10 C586.91,595.28 572.11,601.47 561.81,604.56 C551.75,607.59 534.63,610.65 522.75,611.57 L 514.00 612.24 L 514.00 547.00 L 506.00 547.00 L 506.00 612.00 L 501.25 611.87 C498.64,611.80 493.12,611.36 489.00,610.89 ZM 643.40 472.75 C637.45,461.05 621.77,444.90 607.00,435.26 C595.41,427.70 596.29,428.58 588.76,417.00 C585.07,411.32 578.74,403.65 573.04,397.93 C564.82,389.68 561.01,386.68 549.39,379.30 C546.32,377.35 557.21,380.74 566.17,384.51 C592.78,395.74 616.67,416.87 631.88,442.63 C636.46,450.40 642.03,463.01 644.39,470.96 C646.12,476.77 645.77,477.40 643.40,472.75 ZM 495.50 648.50 C475.41,644.01 457.86,632.16 443.10,613.12 C440.81,610.16 439.07,607.60 439.23,607.44 C439.40,607.27 444.13,608.68 449.75,610.56 C463.18,615.06 482.20,618.85 495.39,619.65 L 506.00 620.30 L 506.00 635.15 C506.00,636.41 506.00,637.56 506.01,638.62 C506.04,645.50 506.05,648.54 504.63,649.55 C503.50,650.35 501.46,649.88 497.82,649.03 C497.11,648.87 496.34,648.69 495.50,648.50 ZM 572.00 417.82 C555.81,412.27 538.49,408.92 519.50,407.67 L 514.50 407.34 L 513.94 377.72 L 519.72 378.40 C527.85,379.35 540.68,383.99 549.19,389.04 C556.99,393.68 571.94,407.43 577.69,415.25 C579.64,417.92 581.07,420.24 580.87,420.42 C580.67,420.59 576.67,419.42 572.00,417.82 ZM 603.31 583.88 C609.03,569.74 613.58,550.98 615.14,535.03 C615.71,529.24 616.38,523.04 616.63,521.25 L 617.09 518.00 L 646.28 518.00 L 645.60 523.75 C643.68,540.11 634.70,556.56 619.54,571.50 C609.82,581.07 602.04,587.01 603.31,583.88 ZM 374.52 504.78 C376.86,487.53 386.22,469.87 400.16,456.36 C406.83,449.91 415.99,442.65 416.64,443.31 C416.85,443.52 415.87,446.77 414.46,450.52 C409.19,464.51 404.79,487.06 403.73,505.50 L 403.50 509.50 L 388.65 509.78 L 373.80 510.05 ZM 411.41 581.36 C391.34,566.42 377.41,544.46 374.53,523.25 L 373.81 518.00 L 403.69 518.00 L 404.32 528.75 C405.25,544.90 409.59,565.28 415.05,579.14 C416.16,581.95 416.90,584.43 416.69,584.64 C416.48,584.85 414.11,583.38 411.41,581.36 ZM 514.50 620.50 L 525.00 619.76 C539.37,618.75 555.28,615.59 569.00,611.00 C575.32,608.89 580.65,607.32 580.85,607.52 C581.58,608.25 572.02,619.70 565.36,626.06 C551.67,639.15 535.75,647.23 519.22,649.48 L 513.95 650.20 ZM 616.75 509.25 C616.55,508.84 616.28,505.58 616.13,502.00 C615.54,487.01 611.68,467.74 605.97,451.26 C604.40,446.72 603.38,443.00 603.71,443.00 C605.20,443.00 615.54,451.84 622.21,458.83 C634.97,472.18 643.86,489.45 645.60,504.25 L 646.28 510.00 L 631.70 510.00 C623.68,510.00 616.95,509.66 616.75,509.25 ZM 440.62 418.03 C443.71,412.74 457.80,398.24 464.54,393.44 C472.85,387.51 486.42,381.23 494.77,379.46 C495.65,379.27 496.47,379.09 497.22,378.93 C501.24,378.04 503.44,377.56 504.63,378.44 C506.05,379.49 506.04,382.49 506.01,389.10 C506.01,390.13 506.00,391.24 506.00,392.45 L 506.00 406.91 L 502.75 407.40 C500.96,407.67 495.67,408.16 491.00,408.49 C477.11,409.45 454.47,414.88 440.12,420.69 C439.13,421.09 439.28,420.33 440.62,418.03 ZM 571.89 631.17 C578.97,624.15 584.74,617.25 588.79,611.00 C596.34,599.33 595.58,600.09 606.50,593.00 C620.18,584.10 632.94,571.59 641.77,558.40 C644.20,554.77 642.04,560.97 637.50,570.66 C622.79,602.07 596.80,626.97 564.81,640.31 C561.65,641.63 562.64,640.34 571.89,631.17 ZM 384.54 457.31 C398.95,424.65 425.85,398.00 458.13,384.39 C462.61,382.50 466.44,381.11 466.64,381.31 C466.84,381.50 464.64,383.18 461.75,385.02 C453.53,390.28 438.24,406.35 431.32,417.00 C423.78,428.60 424.59,427.80 413.00,435.30 C406.75,439.34 399.82,445.16 392.73,452.29 L 381.97 463.13 ZM 447.29 634.56 C421.42,620.67 401.00,599.88 388.20,574.42 L 385.15 568.35 L 393.94 577.05 C398.99,582.05 407.29,588.76 413.43,592.82 C423.73,599.62 424.38,600.26 431.09,610.43 C435.15,616.58 441.80,624.75 446.99,629.99 C451.91,634.95 455.83,638.99 455.71,638.98 C455.60,638.97 451.80,636.98 447.29,634.56 Z" fill="rgb(54,127,170)" data-index="1"></path>
<path d="M 492.46 874.83 C418.07,871.31 344.85,843.30 284.45,795.29 C270.40,784.12 239.96,753.69 228.65,739.50 C186.55,686.73 160.55,625.35 151.32,557.00 C148.72,537.69 148.72,486.31 151.32,467.00 C160.59,398.40 186.27,337.80 228.71,284.41 C239.86,270.38 270.34,239.93 284.50,228.67 C337.63,186.42 398.71,160.43 466.04,151.42 C482.12,149.27 525.45,148.44 543.22,149.94 C703.00,163.41 835.60,281.31 868.06,438.78 C873.21,463.77 875.12,483.53 875.12,512.00 C875.12,553.92 870.00,586.51 857.29,625.50 C821.77,734.48 734.50,821.74 625.50,857.29 C581.70,871.58 539.92,877.08 492.46,874.83 ZM 541.35 754.96 C588.61,748.56 629.83,731.08 665.50,702.31 C678.35,691.94 697.44,672.27 707.07,659.46 C733.03,624.93 748.61,586.51 755.11,541.00 C756.97,527.96 756.69,493.77 754.62,480.00 C746.35,425.12 724.50,380.22 687.51,342.13 C637.01,290.11 570.39,264.10 497.80,268.07 C431.61,271.70 368.46,303.20 325.55,354.00 C291.05,394.83 270.94,445.08 268.10,497.55 C264.87,557.00 282.00,613.23 317.67,660.27 C327.62,673.39 350.60,696.38 363.72,706.32 C401.11,734.67 446.54,752.12 492.79,755.91 C505.02,756.91 530.66,756.41 541.35,754.96 ZM 508.23 840.28 C514.30,837.60 521.44,830.88 524.58,824.91 C525.74,822.69 526.51,818.53 526.78,813.00 C527.18,804.91 527.03,804.19 523.83,798.03 C519.99,790.64 513.36,784.92 506.35,782.96 C500.31,781.27 487.67,782.22 481.78,784.82 C470.60,789.75 463.75,800.03 463.67,812.00 C463.51,836.02 485.83,850.18 508.23,840.28 ZM 663.69 273.94 C673.68,269.08 679.04,260.86 679.79,249.24 C680.22,242.60 679.99,241.42 677.09,235.53 C675.24,231.78 672.20,227.62 669.82,225.58 C664.66,221.16 636.57,206.85 639.79,210.28 C641.01,211.57 642.00,213.18 642.00,213.86 C642.00,215.41 620.22,256.86 618.11,259.33 C616.98,260.66 615.71,261.00 613.52,260.60 C611.55,260.23 613.27,261.53 618.50,264.36 C622.90,266.74 629.20,270.21 632.50,272.07 C639.47,275.99 647.81,278.12 653.50,277.44 C655.70,277.17 660.29,275.60 663.69,273.94 ZM 245.96 658.11 C248.70,657.07 252.73,654.80 254.92,653.07 C262.98,646.68 266.90,632.56 263.67,621.50 C261.88,615.37 251.84,593.00 250.87,593.00 C250.49,593.00 250.68,594.35 251.31,596.00 C252.28,598.58 252.16,599.27 250.47,600.90 C249.39,601.93 238.48,607.12 226.24,612.42 C202.64,622.63 201.59,622.84 198.94,617.89 C196.61,613.53 197.04,617.04 199.53,622.63 C200.96,625.86 203.53,632.10 205.23,636.50 C209.15,646.61 217.56,655.63 225.50,658.24 C232.24,660.45 239.93,660.40 245.96,658.11 ZM 485.86 838.21 C476.46,833.33 471.62,823.78 471.57,810.00 C471.54,800.69 473.16,795.87 478.14,790.46 C489.34,778.32 511.57,784.05 517.33,800.57 C526.47,826.75 507.50,849.45 485.86,838.21 ZM 222.14 652.69 C214.39,649.75 206.00,638.90 206.00,631.83 C206.00,628.19 206.42,627.95 231.93,616.97 C247.58,610.23 253.78,607.99 254.93,608.68 C255.79,609.19 257.74,612.03 259.25,614.99 C262.44,621.22 262.81,627.26 260.43,634.24 C258.51,639.90 250.15,648.13 243.29,651.13 C237.47,653.68 226.81,654.47 222.14,652.69 ZM 775.46 418.04 C776.99,415.04 780.71,408.59 783.73,403.72 C788.00,396.81 789.57,395.02 790.85,395.57 C800.73,399.78 805.52,399.64 810.15,395.00 C812.53,392.62 813.00,391.32 813.00,387.11 C813.00,381.64 811.57,377.53 804.62,363.00 C802.06,357.65 800.32,354.88 800.64,356.66 L 800.65 356.70 C800.80,357.50 800.91,358.15 800.80,358.75 C800.37,361.17 796.31,362.93 776.00,371.79 C774.59,372.41 773.26,372.99 772.00,373.53 C755.40,380.79 752.13,382.22 750.29,381.16 C749.70,380.82 749.26,380.23 748.57,379.49 C746.51,377.26 746.84,378.46 750.66,387.17 C755.26,397.65 756.73,400.28 755.75,396.30 C755.46,395.08 755.73,393.44 756.36,392.64 C757.46,391.22 777.77,382.00 779.77,382.00 C780.31,382.00 781.31,383.34 781.99,384.98 C783.17,387.83 782.90,388.45 775.72,399.23 C767.81,411.10 765.01,416.06 764.99,418.20 C764.99,418.92 766.45,423.07 768.24,427.43 L 771.50 435.37 L 772.09 429.43 C772.44,425.91 773.81,421.28 775.46,418.04 ZM 512.42 484.61 C512.54,484.65 512.65,484.67 512.76,484.65 C522.77,486.18 532.20,492.83 536.61,502.45 C539.95,509.74 540.13,520.59 537.04,527.72 C533.89,534.99 533.01,535.49 529.11,532.22 L 525.86 529.50 L 527.91 525.00 C534.59,510.32 524.37,494.00 508.50,494.00 C485.05,494.00 478.74,526.48 500.44,535.54 C503.12,536.66 506.43,537.07 510.89,536.84 L 517.38 536.50 C517.72,538.42 518.13,540.70 518.56,543.20 C518.59,544.17 518.49,544.91 518.25,545.15 C517.81,545.59 514.32,546.20 510.48,546.50 C505.09,546.93 502.29,546.63 498.20,545.17 C478.86,538.26 471.17,515.37 482.47,498.35 C486.59,492.14 492.92,487.67 500.86,485.36 C504.60,484.27 508.52,484.05 512.37,484.59 C512.38,484.59 512.40,484.60 512.42,484.61 ZM 637.50 272.50 C635.30,271.72 632.26,269.71 630.75,268.02 C629.96,267.15 629.33,266.55 629.00,265.83 C627.99,263.58 629.88,260.04 638.98,242.92 C639.56,241.83 640.16,240.69 640.80,239.50 L 650.89 220.50 L 655.35 220.56 C658.61,220.60 660.77,221.35 663.40,223.36 C668.89,227.54 670.48,231.29 670.46,240.00 C670.44,246.29 669.93,248.57 667.30,254.18 C661.87,265.76 652.37,273.99 644.50,273.93 C642.85,273.92 639.70,273.28 637.50,272.50 ZM 628.32 823.00 C632.54,821.08 636.00,819.21 636.00,818.85 C636.00,818.48 634.25,818.43 632.10,818.71 C627.38,819.35 627.10,818.99 620.43,804.00 C611.61,784.20 609.04,777.90 609.99,778.49 C610.52,778.82 619.84,786.49 630.72,795.54 C641.59,804.59 650.84,812.00 651.28,812.00 C652.03,812.00 651.45,776.42 650.51,763.75 C650.27,760.59 650.25,758.00 650.47,758.00 C651.44,758.00 671.00,796.97 671.00,798.90 C671.00,800.22 670.04,801.48 668.50,802.18 C666.38,803.15 665.02,805.00 666.43,805.00 C667.03,805.00 685.20,796.13 685.77,795.56 C686.03,795.31 684.31,795.19 681.97,795.30 L 677.70 795.50 L 666.38 774.00 C660.15,762.17 655.04,751.30 655.03,749.82 C655.01,748.13 655.92,746.42 657.50,745.18 C661.72,741.86 660.30,741.82 653.84,745.08 L 647.69 748.19 L 648.36 774.67 C648.91,795.96 648.79,801.00 647.77,800.39 C647.07,799.98 639.97,794.24 632.00,787.64 C624.03,781.04 615.41,773.92 612.86,771.82 C610.31,769.72 607.62,768.00 606.88,768.00 C604.91,768.00 595.00,772.25 595.00,773.09 C595.00,773.49 596.71,773.58 598.79,773.30 C601.39,772.95 602.96,773.25 603.79,774.24 C604.45,775.04 609.04,784.85 613.99,796.04 C623.44,817.39 624.58,821.99 621.00,824.23 C619.90,824.92 619.00,825.86 619.00,826.32 C619.00,826.38 619.00,826.42 619.00,826.47 C618.99,826.63 618.99,826.76 619.05,826.83 C619.29,827.12 620.56,826.54 626.85,823.67 L 626.85 823.67 ZM 383.11 275.55 C391.13,271.75 392.03,271.09 389.27,271.05 C385.01,270.98 384.31,268.22 385.92,257.75 C386.89,251.40 387.16,248.21 388.61,247.54 C389.95,246.92 392.28,248.44 397.11,251.58 C397.78,252.02 398.49,252.49 399.26,252.98 C405.17,256.80 410.00,260.30 410.00,260.76 C410.00,261.22 409.46,262.14 408.80,262.80 C408.14,263.46 407.82,264.00 408.08,264.00 C408.79,264.00 428.07,255.26 428.66,254.67 C428.94,254.39 427.44,254.39 425.33,254.66 C422.05,255.09 420.36,254.46 413.50,250.25 C400.01,241.97 391.00,235.94 391.01,235.20 C391.01,234.82 392.11,229.70 393.44,223.84 C395.96,212.69 397.80,208.12 401.37,204.09 L 401.52 203.92 C402.28,203.06 402.78,202.49 402.67,202.32 C402.46,201.99 400.09,203.05 393.23,206.10 L 393.23 206.10 L 392.50 206.42 C386.55,209.07 385.21,209.98 387.27,209.99 C391.68,210.01 392.59,213.29 391.01,223.44 C390.29,228.08 389.36,232.41 388.95,233.08 C388.43,233.92 385.18,232.30 378.10,227.66 C372.55,224.02 368.00,220.68 368.00,220.22 C368.00,219.77 368.56,218.79 369.25,218.05 C369.31,217.99 369.36,217.93 369.41,217.88 C369.77,217.49 370.03,217.22 369.98,217.12 C369.84,216.88 367.68,217.81 360.06,221.11 L 358.70 221.70 L 349.90 225.50 L 353.76 226.04 C355.88,226.34 359.84,227.88 362.56,229.46 C366.47,231.73 384.28,243.30 385.85,244.58 C386.57,245.17 381.72,265.65 379.84,270.00 C378.77,272.48 376.71,275.74 375.26,277.25 C373.81,278.76 372.87,280.00 373.17,280.00 C373.47,280.00 377.94,278.00 383.11,275.55 ZM 287.04 365.44 C293.13,356.33 298.34,348.27 298.63,347.53 C299.08,346.34 289.51,338.00 287.69,338.00 C287.35,338.00 288.01,339.59 289.15,341.54 C292.14,346.60 291.39,354.57 287.37,360.28 C285.74,362.60 283.60,364.65 282.61,364.84 C281.62,365.03 276.35,362.21 270.86,358.56 L 260.91 351.93 L 263.21 347.84 C266.84,341.38 270.64,338.69 275.28,339.31 C275.43,339.33 275.58,339.35 275.72,339.37 C277.39,339.60 278.36,339.73 278.46,339.50 C278.59,339.18 276.99,338.15 273.15,335.68 L 273.15 335.68 L 272.44 335.22 C271.95,334.91 271.50,334.61 271.06,334.33 C266.09,331.13 264.47,330.09 264.26,330.32 C264.15,330.44 264.38,330.85 264.71,331.46 C264.77,331.57 264.83,331.69 264.90,331.81 C265.51,332.94 266.00,334.82 266.00,335.97 C266.00,338.30 263.13,344.16 260.15,347.92 L 258.23 350.34 L 249.37 344.42 C239.15,337.60 238.38,335.94 242.60,329.86 C246.07,324.85 248.15,323.69 254.93,323.03 L 260.35 322.50 L 255.11 319.25 C252.23,317.46 249.56,316.01 249.18,316.02 C248.28,316.04 225.97,350.00 226.86,350.00 C227.24,350.00 228.33,349.10 229.27,348.00 C230.21,346.90 231.37,346.00 231.86,346.00 C232.69,346.00 268.33,369.10 274.55,373.67 C277.29,375.69 277.42,376.06 276.34,378.92 C275.70,380.61 275.35,382.00 275.57,382.00 C275.79,382.00 280.95,374.55 287.04,365.44 ZM 745.65 362.45 C748.59,360.49 751.00,358.76 751.00,358.59 C751.00,358.43 748.83,358.50 746.18,358.76 C742.59,359.10 740.31,358.69 737.29,357.15 C733.04,354.98 727.00,347.81 727.00,344.92 C727.00,343.37 744.86,329.00 746.79,329.00 C747.81,329.00 751.11,333.37 753.35,337.70 C755.41,341.70 755.46,345.37 753.48,347.02 C752.64,347.72 752.16,348.50 752.42,348.75 C752.84,349.17 767.00,339.14 767.00,338.43 C767.00,338.26 765.39,338.39 763.42,338.71 C760.08,339.25 759.49,338.91 754.42,333.55 C751.44,330.40 749.02,327.52 749.04,327.16 C749.13,325.84 766.00,314.00 767.80,314.00 C771.45,314.00 777.00,322.44 777.00,328.00 C777.00,329.70 776.31,332.43 775.47,334.05 C774.64,335.67 774.24,337.00 774.59,337.00 C774.94,337.00 777.43,335.39 780.12,333.41 C783.37,331.03 784.75,329.40 784.25,328.54 C782.16,324.94 760.49,297.17 760.10,297.57 C759.84,297.83 760.17,298.57 760.82,299.22 C763.73,302.13 761.73,304.19 740.46,320.15 L 718.91 336.31 L 715.84 334.04 C711.97,331.18 712.10,331.39 726.37,350.28 C732.90,358.93 738.71,366.00 739.27,366.00 C739.83,366.00 742.70,364.40 745.65,362.45 ZM 565.68 241.43 C567.41,233.10 567.28,232.02 565.01,235.76 C561.79,241.03 557.58,242.99 549.45,243.00 C545.30,243.00 541.91,242.51 541.20,241.80 C539.70,240.30 539.69,236.09 541.13,224.82 L 542.26 216.00 L 546.88 216.00 C553.01,216.00 558.08,218.66 560.25,223.00 C561.90,226.31 562.00,226.36 562.00,223.90 C562.00,222.46 562.29,218.48 562.65,215.04 L 563.31 208.78 L 560.56 211.53 C557.95,214.15 557.49,214.25 550.79,213.69 C546.93,213.36 543.53,212.86 543.24,212.57 C542.31,211.65 544.98,191.73 546.23,190.22 C547.87,188.24 557.50,189.25 560.94,191.76 C562.35,192.78 564.48,195.54 565.69,197.90 L 567.88 202.17 L 568.52 198.77 C568.87,196.90 569.01,193.84 568.83,191.97 L 568.50 188.58 L 550.50 186.34 C529.99,183.79 527.23,183.62 530.97,185.11 C534.41,186.48 535.07,187.88 534.49,192.50 C534.21,194.70 532.86,206.13 531.49,217.90 C530.12,229.67 528.52,239.88 527.93,240.59 C527.34,241.30 525.65,242.03 524.18,242.20 C522.70,242.38 530.72,243.69 542.00,245.12 C553.28,246.56 562.94,247.64 563.47,247.54 C564.01,247.44 565.00,244.68 565.68,241.43 ZM 492.50 244.16 L 509.50 242.50 L 509.80 235.75 C510.08,229.18 508.82,226.60 507.63,231.34 C506.80,234.63 503.33,238.78 499.93,240.54 C497.24,241.93 476.34,244.67 475.42,243.75 C475.19,243.52 480.81,230.91 487.92,215.72 C495.02,200.53 501.13,187.18 501.48,186.05 C501.50,186.00 501.51,185.96 501.53,185.91 C501.70,185.38 501.83,184.97 501.70,184.67 C501.25,183.65 497.70,184.00 481.90,185.53 L 480.69 185.65 C468.42,186.83 463.22,186.99 461.98,186.22 C460.44,185.26 460.17,185.95 459.34,193.07 C458.37,201.43 458.92,203.02 461.03,197.94 C462.87,193.48 467.73,190.26 475.05,188.64 C481.77,187.15 491.00,185.82 491.00,186.34 C491.00,186.50 484.70,199.84 477.00,215.96 C469.30,232.09 463.00,245.69 463.00,246.17 C463.00,246.66 465.81,246.78 469.25,246.43 C472.69,246.09 483.15,245.07 492.50,244.16 ZM 762.25 729.58 C764.86,726.05 767.00,722.89 767.00,722.56 C767.00,722.23 765.83,722.72 764.40,723.66 C762.37,724.99 761.21,725.14 759.15,724.35 C756.19,723.21 722.69,697.98 723.31,697.35 C723.70,696.97 780.77,694.03 788.25,694.01 C790.31,694.00 792.00,693.66 791.99,693.25 C791.98,692.84 783.56,686.20 773.27,678.50 C746.03,658.12 745.19,657.24 748.04,651.93 C750.26,647.77 747.24,650.45 742.27,657.06 C737.12,663.90 736.62,665.36 740.44,662.47 C741.51,661.66 743.19,661.00 744.17,661.00 C745.16,661.00 753.86,666.96 763.50,674.25 L 781.04 687.50 L 764.27 688.23 C755.05,688.64 740.70,689.24 732.39,689.58 L 717.28 690.20 L 713.64 695.07 C711.64,697.75 710.00,700.14 710.00,700.37 C710.00,700.60 711.64,699.95 713.65,698.92 C715.65,697.90 717.79,697.36 718.40,697.72 C723.13,700.53 755.61,726.00 756.82,727.85 C758.04,729.72 758.14,730.80 757.27,733.10 C755.56,737.64 757.09,736.55 762.25,729.58 ZM 259.92 419.14 C262.16,413.45 264.00,408.55 264.00,408.26 C264.00,407.97 263.07,408.92 261.93,410.37 C260.79,411.81 259.00,413.00 257.95,413.00 C256.56,413.00 237.01,405.71 235.29,404.56 C235.18,404.48 236.21,401.96 237.59,398.96 C240.52,392.59 243.32,390.06 247.50,390.01 C249.82,389.98 248.58,389.18 242.00,386.50 C237.32,384.59 233.35,383.03 233.18,383.02 C233.00,383.01 233.79,384.19 234.93,385.63 C236.07,387.08 237.00,389.25 237.00,390.46 C237.00,393.28 234.09,401.82 232.87,402.58 C231.59,403.37 213.37,396.06 211.51,394.01 C210.17,392.53 210.18,391.84 211.59,387.70 C213.64,381.69 218.84,377.00 223.48,377.00 C225.35,377.00 227.10,376.65 227.37,376.22 C227.84,375.44 216.20,370.45 215.53,371.14 C215.35,371.34 211.80,379.98 207.65,390.34 C201.79,404.98 200.64,408.60 202.51,406.59 C203.83,405.16 205.26,404.02 205.70,404.04 C206.14,404.06 217.30,408.45 230.50,413.79 L 254.50 423.50 L 254.50 427.20 C254.50,429.24 254.80,430.59 255.17,430.20 C255.53,429.82 257.67,424.84 259.92,419.14 ZM 323.43 321.07 L 339.33 305.15 L 334.03 299.04 C331.12,295.68 328.56,293.11 328.34,293.33 C328.12,293.54 328.41,294.94 328.97,296.43 C331.62,303.39 329.02,311.83 322.22,318.35 C319.28,321.17 317.68,322.03 316.21,321.57 C313.83,320.81 280.65,286.62 280.17,284.42 C279.98,283.59 280.39,282.24 281.06,281.43 C281.73,280.62 282.08,279.75 281.84,279.51 C281.60,279.26 277.59,282.93 272.95,287.65 C268.30,292.37 265.72,295.47 267.20,294.54 C268.69,293.60 270.74,293.10 271.77,293.43 C274.67,294.35 309.00,329.49 309.00,331.54 C309.00,332.53 308.26,334.17 307.35,335.17 C306.43,336.18 306.10,337.00 306.61,337.00 C307.11,337.00 314.68,329.83 323.43,321.07 ZM 718.00 312.24 C718.00,312.08 716.54,312.72 714.75,313.65 C710.70,315.78 702.32,315.73 698.12,313.56 C693.30,311.07 688.00,305.99 688.00,303.87 C688.00,301.53 720.66,264.00 722.70,264.00 C723.49,264.00 725.11,264.47 726.32,265.05 C728.66,266.18 727.41,264.96 715.92,255.00 C712.43,251.98 710.35,250.61 711.29,251.97 C712.23,253.33 713.00,255.14 713.00,255.98 C713.00,257.61 682.37,293.53 678.99,295.87 C677.29,297.04 676.66,297.00 674.51,295.60 C668.33,291.55 673.41,296.62 689.17,310.21 L 706.21 324.92 L 712.11 318.72 C715.35,315.32 718.00,312.40 718.00,312.24 ZM 720.81 768.86 C728.89,762.19 736.06,756.21 736.74,755.59 C737.70,754.71 737.05,753.16 733.79,748.57 C731.49,745.32 729.44,743.17 729.24,743.78 C729.04,744.39 729.35,745.78 729.94,746.88 C730.52,747.97 731.00,750.57 731.00,752.65 C731.00,755.94 730.28,757.11 725.40,761.72 C718.42,768.33 715.44,769.26 712.58,765.76 C711.43,764.36 707.88,760.03 704.67,756.15 C701.46,752.26 699.14,748.59 699.50,747.99 C699.87,747.40 702.43,745.13 705.18,742.95 C710.59,738.68 714.22,737.98 717.17,740.65 C721.08,744.19 718.84,739.66 713.84,733.91 C708.76,728.06 706.78,726.85 708.95,730.91 C710.54,733.87 708.30,737.65 702.23,742.25 C699.51,744.31 697.01,746.00 696.68,746.00 C695.33,746.00 683.00,729.65 683.00,727.86 C683.00,725.19 690.70,718.23 695.18,716.85 C698.40,715.87 699.34,716.00 702.56,717.90 C704.59,719.10 706.38,719.95 706.53,719.79 C706.68,719.63 704.89,717.29 702.54,714.59 L 698.27 709.68 L 683.38 722.00 C675.20,728.77 668.31,734.47 668.08,734.66 C667.85,734.85 667.96,735.30 668.33,735.66 C668.69,736.02 669.81,735.57 670.82,734.66 C674.86,731.01 676.35,732.18 692.74,752.01 C701.39,762.46 708.80,771.94 709.22,773.06 C709.78,774.57 709.32,775.77 707.49,777.60 C705.01,780.08 704.49,781.00 705.56,781.00 C705.87,781.00 712.73,775.54 720.81,768.86 ZM 567.25 838.32 C577.15,836.67 580.97,834.62 572.22,835.66 C568.53,836.10 567.12,835.86 566.09,834.61 C564.76,833.01 556.09,790.03 556.03,784.73 C555.99,781.33 558.85,780.00 566.17,780.00 C570.53,780.00 571.64,780.44 574.50,783.30 C577.82,786.62 579.98,792.13 579.99,797.30 C580.01,803.70 573.31,811.00 567.42,811.00 C565.54,811.00 564.00,811.45 564.00,812.00 C564.00,814.99 574.76,811.76 580.14,807.15 C587.14,801.16 588.84,793.43 584.94,785.38 C582.58,780.51 576.63,776.97 570.93,777.05 C566.85,777.10 541.34,782.33 540.35,783.31 C539.98,783.69 541.55,784.00 543.85,784.00 C547.27,784.00 548.21,784.42 548.94,786.25 C550.36,789.85 558.24,833.51 557.84,835.60 C557.64,836.64 555.90,838.30 553.99,839.29 L 550.50 841.09 L 554.00 840.52 C555.92,840.20 561.89,839.21 567.25,838.32 ZM 264.04 720.05 L 270.15 716.10 L 263.27 716.68 L 256.40 717.26 L 252.10 712.38 C246.81,706.38 244.67,702.41 245.71,700.55 C246.43,699.27 254.73,692.73 262.68,687.18 L 265.86 684.96 L 269.96 690.69 C275.34,698.20 275.86,700.45 272.95,703.56 C269.17,707.57 272.57,706.33 279.00,701.34 C282.30,698.78 285.00,696.55 285.00,696.40 C285.00,696.25 283.47,696.37 281.59,696.68 C278.37,697.20 277.91,696.89 273.34,691.03 C270.68,687.61 268.37,684.47 268.22,684.06 C267.93,683.28 280.68,673.30 284.75,671.13 C287.84,669.48 289.79,670.73 294.28,677.24 C298.50,683.37 298.85,686.10 296.00,690.77 C294.90,692.57 294.00,694.27 294.00,694.54 C294.00,694.82 296.25,693.36 299.00,691.31 C301.75,689.25 304.00,687.32 304.00,687.01 C304.00,685.95 281.91,656.50 280.82,656.12 C280.23,655.92 280.54,657.10 281.52,658.76 C282.50,660.42 283.05,662.43 282.74,663.23 C282.20,664.63 247.60,690.60 241.93,693.86 C239.19,695.43 239.02,695.39 236.05,692.55 C234.37,690.94 233.00,689.93 233.00,690.31 C233.00,691.04 257.08,724.00 257.61,724.00 C257.79,724.00 260.68,722.22 264.04,720.05 ZM 377.30 806.34 C381.44,800.05 381.41,798.28 377.24,802.26 C371.63,807.61 368.14,807.72 359.33,802.79 C355.54,800.67 353.42,799.54 352.81,797.87 C352.06,795.81 353.59,792.91 357.08,786.30 L 357.43 785.63 C360.66,779.51 363.41,774.36 363.55,774.18 C363.98,773.64 372.31,778.08 375.86,780.75 C378.93,783.05 379.16,783.59 378.59,787.13 C378.25,789.26 378.20,791.00 378.48,791.00 C378.75,791.00 380.58,787.80 382.55,783.90 C386.01,777.03 386.63,774.33 384.02,777.48 C382.12,779.76 379.66,779.36 371.97,775.48 L 364.99 771.97 L 368.12 765.77 C375.71,750.73 376.98,749.93 386.02,754.51 C392.37,757.73 394.42,760.80 393.72,766.02 C393.43,768.21 393.33,770.00 393.51,770.00 C394.39,770.00 399.01,760.46 398.62,759.45 C398.12,758.16 366.47,740.99 364.63,741.01 C364.01,741.02 364.96,742.17 366.75,743.58 C368.54,744.99 369.99,746.67 369.98,747.32 C369.94,749.42 346.39,792.35 344.69,793.42 C343.55,794.15 342.14,794.11 340.03,793.32 C338.36,792.69 337.00,792.47 337.01,792.84 C337.02,793.62 371.02,811.94 372.54,811.97 C373.11,811.99 375.25,809.45 377.30,806.34 ZM 356.84 292.84 C367.15,285.50 368.38,284.45 364.78,286.07 C362.60,287.05 361.75,287.03 360.47,285.97 C358.43,284.28 331.58,246.13 330.65,243.59 C330.17,242.30 330.65,240.93 332.15,239.34 C335.61,235.66 333.67,236.57 326.49,242.01 C322.86,244.76 318.52,247.72 316.85,248.58 C315.18,249.44 314.04,250.38 314.32,250.65 C314.60,250.93 315.80,250.64 316.99,250.00 C318.18,249.37 319.72,249.06 320.41,249.33 C322.44,250.11 351.00,291.59 351.00,293.76 C351.00,294.86 349.99,296.46 348.75,297.33 C347.51,298.19 346.88,298.92 347.34,298.95 C347.81,298.98 352.08,296.23 356.84,292.84 ZM 598.56 256.47 C597.49,255.66 596.25,255.00 595.81,255.00 C594.12,255.00 595.21,250.08 602.01,227.15 C608.84,204.12 610.22,201.07 613.94,200.95 C615.73,200.88 601.02,196.27 596.50,195.47 C593.83,195.00 593.75,195.06 595.77,195.95 C597.02,196.50 598.30,197.63 598.62,198.45 C599.25,200.11 585.43,247.70 583.70,249.84 C583.00,250.70 581.54,250.96 579.59,250.57 C573.65,249.38 578.65,251.67 587.00,253.96 C591.67,255.25 596.17,256.67 597.00,257.12 C599.51,258.49 600.62,258.03 598.56,256.47 ZM 816.98 640.50 C819.28,635.00 821.40,629.94 821.69,629.25 C822.90,626.35 820.23,628.29 818.93,631.25 C817.92,633.54 816.76,634.56 815.00,634.70 C813.62,634.81 802.38,630.54 790.00,625.20 C769.23,616.25 767.48,615.29 767.19,612.83 C766.84,609.76 769.80,603.39 772.88,600.61 C774.60,599.06 775.96,598.82 780.49,599.29 C783.52,599.60 786.00,599.65 786.00,599.40 C786.00,598.96 771.21,592.00 770.27,592.00 C770.00,592.00 770.06,592.70 770.38,593.56 C771.39,596.19 755.30,635.35 752.11,638.05 C750.39,639.50 750.76,639.85 758.14,643.65 C762.46,645.87 766.00,647.52 766.00,647.31 C766.00,647.09 764.20,645.21 762.00,643.11 C758.65,639.93 758.00,638.67 758.02,635.40 C758.05,630.92 761.22,623.24 763.38,622.41 C764.82,621.85 806.26,638.65 810.85,641.64 C813.22,643.19 813.26,643.68 811.44,650.00 C809.91,655.36 812.91,650.20 816.98,640.50 ZM 323.27 750.00 C348.79,736.94 353.78,735.18 356.78,738.18 C357.43,738.83 358.19,739.14 358.46,738.87 C358.96,738.38 345.63,726.00 344.60,726.00 C344.31,726.00 344.95,727.49 346.03,729.32 C347.62,732.02 347.75,732.93 346.74,734.18 C345.26,736.03 305.30,756.63 304.58,755.92 C303.79,755.13 317.07,710.65 318.57,709.07 C319.68,707.91 320.42,707.87 322.59,708.86 C324.06,709.53 325.43,709.91 325.63,709.70 C325.84,709.49 322.41,706.31 318.00,702.63 C313.60,698.94 310.00,696.37 310.00,696.90 C310.00,697.44 310.45,698.16 311.00,698.50 C312.85,699.64 312.03,704.72 307.59,719.65 C296.25,757.81 294.97,763.00 296.93,763.00 C297.45,763.00 309.30,757.15 323.27,750.00 ZM 439.00 834.52 C439.00,834.26 440.10,831.11 441.46,827.52 C444.05,820.63 443.65,818.94 440.62,824.06 C439.63,825.74 437.26,827.86 435.36,828.77 C432.12,830.31 431.44,830.30 424.70,828.59 C413.52,825.75 411.00,824.48 411.00,821.70 C411.00,819.37 422.94,778.90 425.03,774.12 C425.94,772.04 426.57,771.81 430.04,772.28 C435.07,772.95 435.26,771.32 430.25,770.39 C428.19,770.01 423.38,768.64 419.57,767.35 L 418.74 767.06 L 418.74 767.06 C413.51,765.29 412.33,764.89 412.07,765.22 C412.00,765.31 412.00,765.47 412.00,765.67 C412.00,765.71 412.00,765.74 412.00,765.78 C412.00,766.21 413.41,767.09 415.14,767.75 C418.15,768.88 418.26,769.11 417.66,773.22 C416.81,778.99 404.46,818.75 402.93,820.58 C402.07,821.62 400.68,821.85 398.11,821.40 C389.92,819.95 397.32,823.04 413.50,827.83 C422.85,830.60 431.62,833.32 433.00,833.87 C435.68,834.94 439.00,835.31 439.00,834.52 ZM 218.79 520.86 C226.53,515.24 230.04,511.88 229.35,510.76 C227.97,508.52 212.57,497.95 211.37,498.41 C208.42,499.54 195.00,510.33 195.00,511.57 C195.00,513.08 209.80,524.86 211.79,524.95 C212.50,524.98 215.65,523.14 218.79,520.86 ZM 820.44 519.51 L 820.96 519.12 C826.91,514.64 829.25,512.88 829.11,511.35 C829.02,510.31 827.79,509.37 825.79,507.77 C816.99,500.73 812.18,497.77 810.83,498.58 C805.75,501.63 795.00,510.49 795.00,511.63 C795.00,513.03 810.36,525.00 812.16,525.00 C812.70,525.00 816.43,522.53 820.44,519.51 ZM 787.55 389.41 C785.44,387.30 782.79,382.12 783.20,380.89 C783.65,379.55 800.91,372.00 803.55,372.00 C808.41,372.00 810.70,379.12 807.37,383.88 C805.31,386.82 796.51,390.98 792.32,390.99 C790.57,391.00 788.43,390.28 787.55,389.41 ZM 206.00 517.38 C205.65,517.11 205.31,516.84 204.98,516.59 C201.51,513.89 199.91,512.64 199.96,511.47 C200.01,510.35 201.57,509.30 204.44,507.13 C207.50,504.83 210.63,502.70 211.40,502.40 C212.75,501.88 225.06,510.44 224.95,511.82 C224.86,512.89 213.11,521.01 211.74,520.95 C211.06,520.92 208.48,519.32 206.00,517.38 ZM 804.60 516.28 L 798.71 511.65 L 801.60 509.31 C803.20,508.02 806.18,505.80 808.24,504.36 L 811.98 501.74 L 817.53 505.56 C821.93,508.60 824.02,510.00 824.02,511.40 C824.02,512.64 822.41,513.87 819.36,516.22 L 819.12 516.41 C815.84,518.93 812.56,520.98 811.83,520.95 C811.10,520.93 807.85,518.82 804.60,516.28 Z" fill="rgb(110,140,171)" data-index="2" style="opacity: 1;"></path>

</g>
</svg>